<svg xmlns="http://www.w3.org/2000/svg" version="1.1" xmlns:xlink="http://www.w3.org/1999/xlink" xmlns:svgjs="http://svgjs.dev/svgjs" width="1500" height="541" viewBox="0 0 1500 541"><g transform="matrix(1,0,0,1,-0.9090909090911055,-0.4073311614655495)"><svg viewBox="0 0 396 143" data-background-color="#fafafa" preserveAspectRatio="xMidYMid meet" height="541" width="1500" xmlns="http://www.w3.org/2000/svg" xmlns:xlink="http://www.w3.org/1999/xlink"><g id="tight-bounds" transform="matrix(1,0,0,1,0.24000000000003752,0.10766794101584765)"><svg viewBox="0 0 395.5199999999999 142.78466411796828" height="142.78466411796828" width="395.5199999999999"><g><svg viewBox="0 0 395.52000000000004 142.7846641179683" height="142.78466411796828" width="395.5199999999999"><g><svg viewBox="0 0 395.52000000000004 142.7846641179683" height="142.7846641179683" width="395.52000000000004"><g id="textblocktransform"><svg viewBox="0 0 395.52000000000004 142.7846641179683" height="142.7846641179683" width="395.52000000000004" id="textblock"><g><svg viewBox="0 0 395.52000000000004 142.7846641179683" height="142.7846641179683" width="395.52000000000004"><g transform="matrix(1,0,0,1,0,0)"><svg width="395.52000000000004" viewBox="0.5 -32.5 91.55 33.05" height="142.7846641179683" data-palette-color="#ffffff"><path d="M25.7 0.55L25.7 0.55Q24.15 0.55 23.08-0.78 22-2.1 21-5.15L21-5.15Q20.5-6.65 20.18-8.08 19.85-9.5 19.7-10.85L19.7-10.85Q19.05-9.85 18.53-9.53 18-9.2 17-9.2L17-9.2Q14.55-9.2 11.8-9.28 9.05-9.35 6.9-9.4L6.9-9.4Q6.8-8.5 6.73-7.58 6.65-6.65 6.65-5.75L6.65-5.75Q6.65-4.95 6.73-4.15 6.8-3.35 6.85-2.6L6.85-2.6Q7-1.2 5.75-0.35 4.5 0.5 2.65 0.5L2.65 0.5Q1.05 0.5 1.05-0.9L1.05-0.9Q1.05-1.75 1.5-3.45L1.5-3.45Q1.75-4.6 1.9-5.43 2.05-6.25 2.05-6.75L2.05-6.75Q2.05-8.15 1.2-8.65L1.2-8.65Q0.5-9.05 0.5-9.7L0.5-9.7Q0.5-10.3 0.78-11.15 1.05-12 1.5-12.73 1.95-13.45 2.35-13.75L2.35-13.75Q2.7-13.95 3.2-14.1 3.7-14.25 4.45-14.3L4.45-14.3Q6.4-19.9 8.83-23.98 11.25-28.05 14-30.28 16.75-32.5 19.6-32.5L19.6-32.5Q21.35-32.5 22.15-31.33 22.95-30.15 22.95-27.4L22.95-27.4 22.95-25.15Q22.95-20.1 23.7-15.85 24.45-11.6 25.55-8.95L25.55-8.95Q26.65-6.15 28.6-4.35L28.6-4.35Q29.2-3.85 29.4-3.48 29.6-3.1 29.6-2.7L29.6-2.7Q29.6-1.95 29.03-1.2 28.45-0.45 27.55 0.05 26.65 0.55 25.7 0.55ZM8.4-14.6L8.4-14.6Q10.85-14.7 12.7-14.78 14.55-14.85 15.8-14.85L15.8-14.85 19.3-14.85Q19.2-16.25 19.13-17.8 19.05-19.35 19.05-21.05L19.05-21.05 19.05-23.95Q19.05-25.4 18.73-25.88 18.4-26.35 17.5-26.35L17.5-26.35Q15.05-26.35 12.6-23.15 10.15-19.95 8.4-14.6ZM34.55 0.55L34.55 0.55Q32.6 0.55 32.6-0.85L32.6-0.85Q32.6-1.25 32.75-1.9L32.75-1.9Q33.8-7.15 34.25-12.55L34.25-12.55Q33.5-12.35 33.05-12.35L33.05-12.35Q32.55-12.35 32.55-13.25L32.55-13.25Q32.55-14.45 33.15-15.95 33.75-17.45 34.55-18.15L34.55-18.15Q34.55-20.8 34.42-22.58 34.3-24.35 33.95-25.7 33.6-27.05 32.85-28.3L32.85-28.3Q32.4-29 32.4-29.35L32.4-29.35Q32.4-30 33.07-30.63 33.75-31.25 34.72-31.7 35.7-32.15 36.55-32.15L36.55-32.15Q38.15-32.15 38.67-30.73 39.2-29.3 39.2-27L39.2-27Q39.15-25.9 39-23.85 38.85-21.8 38.55-18.8L38.55-18.8Q41.7-19 44.7-19.1 47.7-19.2 50.45-19.2L50.45-19.2 54.15-19.2 54.15-20.6Q54.15-24.95 53-28.25L53-28.25Q52.65-29.1 52.65-29.45L52.65-29.45Q52.65-30.45 53.92-31.3 55.2-32.15 56.6-32.15L56.6-32.15Q58.15-32.15 58.67-31.03 59.2-29.9 59.2-27.85L59.2-27.85Q59.2-26.5 58.95-24.2 58.7-21.9 58.25-18.6L58.25-18.6Q57.8-15.1 57.55-12.83 57.3-10.55 57.3-8.8L57.3-8.8Q57.3-5.5 59-3.9L59-3.9Q59.65-3.15 59.65-2.4L59.65-2.4Q59.65-1.25 58.3-0.38 56.95 0.5 55.05 0.5L55.05 0.5Q53.85 0.5 53.15-0.15 52.45-0.8 52.45-2.95L52.45-2.95Q52.45-3.7 52.6-5.2 52.75-6.7 53.1-9L53.1-9Q53.3-10.45 53.47-11.8 53.65-13.15 53.75-14.35L53.75-14.35Q53.4-13.9 53.07-13.65 52.75-13.4 52.2-13.45L52.2-13.45Q50.4-13.55 48.62-13.63 46.85-13.7 45.1-13.7L45.1-13.7Q41.45-13.7 38.15-13.25L38.15-13.25Q38.1-12.9 38.07-12.08 38.05-11.25 38.05-10.7L38.05-10.7Q38.05-8.55 38.25-6.25 38.45-3.95 38.65-2.15L38.65-2.15Q38.8-0.9 37.45-0.18 36.1 0.55 34.55 0.55ZM66.75 0.5L66.75 0.5Q65.64 0.5 64.87-0.08 64.09-0.65 64.09-2.8L64.09-2.8Q64.09-3.9 64.32-5.48 64.55-7.05 64.8-8.75L64.8-8.75Q65.2-11.15 65.59-14.03 66-16.9 66-19.75L66-19.75Q66-22.75 65.8-24.35 65.59-25.95 65.34-26.95L65.34-26.95Q65.25-27.5 65.17-27.95 65.09-28.4 65.09-28.95L65.09-28.95Q65.09-30.55 66.12-31.38 67.14-32.2 68.39-32.2L68.39-32.2Q69.64-32.2 70.5-31.58 71.34-30.95 72-30.25L72-30.25Q76.3-25.4 79.75-20.08 83.2-14.75 85.5-9.15L85.5-9.15Q85.75-8.75 85.95-8.75L85.95-8.75Q86.25-8.75 86.34-9.15L86.34-9.15Q87.25-15 87.25-19.75L87.25-19.75Q87.25-22.6 87.02-24.28 86.8-25.95 86.47-26.88 86.15-27.8 85.84-28.35L85.84-28.35Q85.7-28.7 85.59-28.98 85.5-29.25 85.5-29.5L85.5-29.5Q85.5-30.1 86.12-30.73 86.75-31.35 87.65-31.75 88.55-32.15 89.4-32.15L89.4-32.15Q90.59-32.15 91.15-31.35 91.7-30.55 91.87-29.38 92.05-28.2 92.05-27L92.05-27Q92.05-25.65 91.8-23.5 91.55-21.35 91.22-18.88 90.9-16.4 90.67-14 90.45-11.6 90.45-9.75L90.45-9.75Q90.45-8.7 90.52-7.7 90.59-6.7 90.7-5.75L90.7-5.75Q90.84-4.5 90.84-3.55L90.84-3.55Q90.84-1.7 89.92-0.63 89 0.45 87.4 0.45L87.4 0.45Q86.3 0.45 85.22-0.2 84.15-0.85 83.59-2.3L83.59-2.3Q81.45-7.8 78.32-13.03 75.2-18.25 71.8-22.05L71.8-22.05Q71.25-22.55 70.89-22.55L70.89-22.55Q70.39-22.55 70.25-21.45L70.25-21.45Q70-19.55 69.75-17.3 69.5-15.05 69.34-12.93 69.2-10.8 69.2-9.3L69.2-9.3Q69.2-7.6 69.5-6.38 69.8-5.15 70.39-4L70.39-4Q70.95-3 70.95-2.2L70.95-2.2Q70.95-1.25 69.84-0.38 68.75 0.5 66.75 0.5Z" opacity="1" transform="matrix(1,0,0,1,0,0)" fill="#ffffff" class="wordmark-text-0" data-fill-palette-color="primary" id="text-0"></path></svg></g></svg></g></svg></g></svg></g><g></g></svg></g><defs></defs></svg><rect width="395.5199999999999" height="142.78466411796828" fill="none" stroke="none" visibility="hidden"></rect></g></svg></g></svg>