<svg xmlns="http://www.w3.org/2000/svg" version="1.1" xmlns:xlink="http://www.w3.org/1999/xlink" xmlns:svgjs="http://svgjs.dev/svgjs" width="1500" height="640" viewBox="0 0 1500 640"><g transform="matrix(1,0,0,1,-0.9090909090911055,-0.4310005204017102)"><svg viewBox="0 0 396 169" data-background-color="#fafafa" preserveAspectRatio="xMidYMid meet" height="640" width="1500" xmlns="http://www.w3.org/2000/svg" xmlns:xlink="http://www.w3.org/1999/xlink"><g id="tight-bounds" transform="matrix(1,0,0,1,0.24000000000003752,0.11381107491857279)"><svg viewBox="0 0 395.5199999999999 168.77237785016285" height="168.77237785016285" width="395.5199999999999"><g><svg viewBox="0 0 395.52000000000004 168.77237785016288" height="168.77237785016285" width="395.5199999999999"><g><svg viewBox="0 0 395.52000000000004 168.77237785016288" height="168.77237785016288" width="395.52000000000004"><g id="textblocktransform"><svg viewBox="0 0 395.52000000000004 168.77237785016288" height="168.77237785016288" width="395.52000000000004" id="textblock"><g><svg viewBox="0 0 395.52000000000004 168.77237785016288" height="168.77237785016288" width="395.52000000000004"><g transform="matrix(1,0,0,1,0,0)"><svg width="395.52000000000004" viewBox="-0.05 -33.45 92.1 39.300000000000004" height="168.77237785016288" data-palette-color="#67e2ff"><path d="M47.3-14.3L47.3-14.3 52.15-14.4Q53.95-14.4 53.95-14.15L53.95-14.15Q53.95-13.5 46.65-13L46.65-13Q42-3.9 42-0.6L42-0.6Q42 1.7 43.45 1.7L43.45 1.7Q44 1.7 44.83 1.03 45.65 0.35 45.83 0.35 46 0.35 46 0.6L46 0.6Q45.75 1.5 44.48 2.1 43.2 2.7 42.33 2.7 41.45 2.7 40.95 2.6L40.95 2.6Q39.75 2.15 39.75-0.3L39.75-0.3Q39.75-5.35 43.6-13.15L43.6-13.15 37.6-13Q30.9-6.45 24.15-1.5L24.15-1.5Q14.05 5.85 8.35 5.85L8.35 5.85Q8 5.85 7.65 5.8L7.65 5.8Q-0.05 5.15-0.05-2.1L-0.05-2.1Q-0.05-6.4 2.65-11.2L2.65-11.2Q6.25-17.6 12.5-22.13 18.75-26.65 23.7-26.65 28.65-26.65 28.65-23L28.65-23Q28.65-20.55 27.15-17.55 25.65-14.55 24.1-13.75L24.1-13.75Q23.95-13.7 23.78-13.7 23.6-13.7 23.6-13.8L23.6-13.8 25.25-16.5Q26.95-19.15 26.95-21.15 26.95-23.15 26.08-24.38 25.2-25.6 23.3-25.6L23.3-25.6Q19.4-25.6 13.98-21.25 8.55-16.9 5.73-10.55 2.9-4.2 2.9-0.65L2.9-0.65Q2.9 4.7 8.35 4.7L8.35 4.7Q13.55 4.7 22.45-2L22.45-2Q26.4-4.95 35.3-13.15L35.3-13.15Q33.55-13.05 32.05-12.8L32.05-12.8Q28.85-12.2 29.05-13L29.05-13Q29.25-14.85 30.95-14.85L30.95-14.85Q34.25-14.45 36.5-14.45L36.5-14.45Q40.8-18.4 49.35-27.4L49.35-27.4Q55.1-33.45 56.35-33.45L56.35-33.45Q56.9-33.45 56.9-32.6 56.9-31.75 56.45-29.95 56-28.15 55.45-27.75L55.45-27.75Q54.3-26.95 53.3-25.58 52.3-24.2 50.45-20.43 48.6-16.65 47.3-14.3ZM51.3-26.5L51.3-26.5 38.5-14.5 41.45-14.5Q42.5-14.45 44.05-14.45L44.05-14.45Q45.5-17.3 51.3-26.5ZM62.85-0.2L62.85-0.2Q59.9-0.2 59.9-3.65L59.9-3.65Q59.9-5.6 61.27-7.98 62.65-10.35 64.65-13.55L64.65-13.55Q58.25-10.35 53.05-4.1L53.05-4.1Q50.15 0.25 49.65 0.25L49.65 0.25Q48.2 0.25 48.2-0.6L48.2-0.6Q48.2-1.05 48.8-2.2L48.8-2.2Q53.65-10.85 56.15-14.85L56.15-14.85Q62.1-24.4 64.55-25.2L64.55-25.2Q64.65-25.25 64.75-25.25L64.75-25.25Q65.4-25.25 65.65-24.2L65.65-24.2Q65.5-23.15 60.45-16.6L60.45-16.6Q55.2-9.95 54.5-7.9L54.5-7.9Q56.35-9.25 60.95-12.45L60.95-12.45Q65.9-15.9 67.5-15.9 69.1-15.9 69.1-14.65L69.1-14.65Q69.1-14.45 69.07-14.38 69.05-14.3 65.6-9.65 62.15-5 62.15-2.8L62.15-2.8Q62.15-1.65 63-1.65L63-1.65Q65.7-1.75 71.1-8.15L71.1-8.15Q71.55-8.6 71.77-8.6 72-8.6 72-8.3L72-8.3Q72-7.3 67.05-2.9L67.05-2.9Q63.95-0.2 62.85-0.2ZM77.84-15.8L77.84-15.8Q79.2-15.8 79.2-14.75L79.2-14.75Q79.2-14.45 79.05-14.15L79.05-14.15Q74.55-7.9 73.64-4.7L73.64-4.7Q85.3-16.35 87.8-16.35L87.8-16.35Q88.05-16.4 88.25-16.4L88.25-16.4Q89.65-16.4 89.65-15.15L89.65-15.15Q89.65-14.9 89.55-14.65 89.45-14.4 87.55-11.95L87.55-11.95Q85.34-9.35 83.82-6.95 82.3-4.55 82.3-2.95 82.3-1.35 83-1.35L83-1.35Q85.2-1.35 90.65-7.4L90.65-7.4Q90.75-7.5 91-7.85L91-7.85Q91.75-8.75 91.9-8.75 92.05-8.75 92.05-8.25 92.05-7.75 91.34-6.95L91.34-6.95Q85.15 0.1 82.55 0.1L82.55 0.1Q80.09 0.1 80.09-2.6 80.09-5.3 82.09-8.8L82.09-8.8 85.3-14Q81.9-11.5 79.25-8.53 76.59-5.55 74.42-2.75 72.25 0.05 71.89 0.05L71.89 0.05Q71.14 0.05 70.72-0.58 70.3-1.2 70.3-2.13 70.3-3.05 70.95-4.6 71.59-6.15 72.59-8.35L72.59-8.35 69.59-5.2Q68.5-4.1 68.22-4.1 67.95-4.1 67.95-4.42 67.95-4.75 68.34-5.15L68.34-5.15Q70.2-7 71.55-8.7L71.55-8.7Q72.84-10.4 76.89-15.2L76.89-15.2Q77.34-15.8 77.84-15.8Z" opacity="1" transform="matrix(1,0,0,1,0,0)" fill="#67e2ff" class="wordmark-text-0" data-fill-palette-color="primary" id="text-0"></path></svg></g></svg></g></svg></g></svg></g><g></g></svg></g><defs></defs></svg><rect width="395.5199999999999" height="168.77237785016285" fill="none" stroke="none" visibility="hidden"></rect></g></svg></g></svg>